# xmcd
#
# Track frame offsets:
#	150
#	12550
#	22855
#	41958
#	55710
#	72860
#	75939
#	91222
#	116222
#	128171
#	140664
#	165417
#	179336
#	189361
#	208240
#	210965
#	235124
#	247385
#	260390
#	276564
#	286413
#	298554
#	314331
#
# Disc length: 4325 seconds
#
# Revision: 1
# Processed by: cddbd v1.5.1PL0 Copyright (c) Steve Scherf et al.
# Submitted via: audiograbber 1.83.01
#
DISCID=5610e317
DTITLE=LONESOME BOB TILLY - Tributes and With wild mushrooms and vegetable (2 alb
DTITLE=ums in 1)
DYEAR=1987
DGENRE=Blues
TTITLE0=Mercy. mercy, mercy
TTITLE1=Tribute to the Mississipi John
TTITLE2=Tribute to Sony Boy
TTITLE3=Tribute to Reverend Davis
TTITLE4=Tribute to Anderlly Brothers
TTITLE5=Tribute to New Dawn
TTITLE6=Tribute to Tempra Red
TTITLE7=Tribute to Atta James
TTITLE8=Tribute To Sonny Terry
TTITLE9=Tribute To Ma
TTITLE10=Tribute To The Empress
TTITLE11=Tribute To Jelly Roll
TTITLE12=Tribute To Memphis Jug Band
TTITLE13=Tribute To Lady Day
TTITLE14=Tribute To New Dawn Revisited
TTITLE15=On the beach
TTITLE16=Years gonne by
TTITLE17=Baby, please don`t go
TTITLE18=Cold twisted
TTITLE19=St Gotthards beauty
TTITLE20=5:30
TTITLE21=900 miles from home
TTITLE22=San Francisco blues
EXTD=Recored on 2 cassettes 1987.
EXTT0=
EXTT1=
EXTT2=
EXTT3=
EXTT4=
EXTT5=
EXTT6=
EXTT7=
EXTT8=
EXTT9=
EXTT10=
EXTT11=
EXTT12=
EXTT13=
EXTT14=
EXTT15=
EXTT16=
EXTT17=
EXTT18=
EXTT19=
EXTT20=
EXTT21=
EXTT22=
PLAYORDER=
